<mxfile host="Electron" agent="Mozilla/5.0 (Windows NT 10.0; Win64; x64) AppleWebKit/537.36 (KHTML, like Gecko) draw.io/28.2.5 Chrome/138.0.7204.251 Electron/37.6.1 Safari/537.36" version="28.2.5" pages="2">
  <diagram name="Page-1" id="0YfdygUyZtazKVSB9Esu">
    <mxGraphModel dx="278" dy="693" grid="1" gridSize="10" guides="1" tooltips="1" connect="1" arrows="1" fold="1" page="1" pageScale="1" pageWidth="1700" pageHeight="1100" math="0" shadow="0">
      <root>
        <object label="" id="0">
          <mxCell />
        </object>
        <mxCell id="1" parent="0" />
        <mxCell id="ShgwBQbkHuVQa2O5DpQs-1" value="" style="rounded=0;whiteSpace=wrap;html=1;" parent="1" vertex="1">
          <mxGeometry x="80" y="240" width="160" height="560" as="geometry" />
        </mxCell>
        <mxCell id="ShgwBQbkHuVQa2O5DpQs-2" value="" style="rounded=0;whiteSpace=wrap;html=1;strokeColor=light-dark(#ffc561, #ededed);" parent="1" vertex="1">
          <mxGeometry x="350" y="240" width="220" height="560" as="geometry" />
        </mxCell>
        <mxCell id="ShgwBQbkHuVQa2O5DpQs-3" value="" style="rounded=0;whiteSpace=wrap;html=1;strokeColor=light-dark(#dedede, #ededed);" parent="1" vertex="1">
          <mxGeometry x="670" y="230" width="240" height="560" as="geometry" />
        </mxCell>
        <mxCell id="ShgwBQbkHuVQa2O5DpQs-4" value="dat aflow diagram" style="rounded=0;whiteSpace=wrap;html=1;fontSize=30;" parent="1" vertex="1">
          <mxGeometry x="50" y="20" width="300" height="60" as="geometry" />
        </mxCell>
        <mxCell id="ShgwBQbkHuVQa2O5DpQs-5" value="Source" style="rounded=0;whiteSpace=wrap;html=1;fontSize=24;" parent="1" vertex="1">
          <mxGeometry x="90" y="190" width="120" height="60" as="geometry" />
        </mxCell>
        <mxCell id="ShgwBQbkHuVQa2O5DpQs-29" style="edgeStyle=orthogonalEdgeStyle;rounded=0;orthogonalLoop=1;jettySize=auto;html=1;entryX=0;entryY=0.25;entryDx=0;entryDy=0;" parent="1" source="ShgwBQbkHuVQa2O5DpQs-7" target="ShgwBQbkHuVQa2O5DpQs-2" edge="1">
          <mxGeometry relative="1" as="geometry" />
        </mxCell>
        <mxCell id="ShgwBQbkHuVQa2O5DpQs-30" style="edgeStyle=orthogonalEdgeStyle;rounded=0;orthogonalLoop=1;jettySize=auto;html=1;entryX=0;entryY=0.5;entryDx=0;entryDy=0;" parent="1" source="ShgwBQbkHuVQa2O5DpQs-7" target="ShgwBQbkHuVQa2O5DpQs-20" edge="1">
          <mxGeometry relative="1" as="geometry" />
        </mxCell>
        <mxCell id="ShgwBQbkHuVQa2O5DpQs-31" style="edgeStyle=orthogonalEdgeStyle;rounded=0;orthogonalLoop=1;jettySize=auto;html=1;entryX=0;entryY=0.5;entryDx=0;entryDy=0;" parent="1" source="ShgwBQbkHuVQa2O5DpQs-7" target="ShgwBQbkHuVQa2O5DpQs-15" edge="1">
          <mxGeometry relative="1" as="geometry" />
        </mxCell>
        <mxCell id="ShgwBQbkHuVQa2O5DpQs-7" value="" style="image;aspect=fixed;html=1;points=[];align=center;fontSize=12;image=img/lib/azure2/general/Folder_Blank.svg;" parent="1" vertex="1">
          <mxGeometry x="121" y="340" width="69" height="56.00000000000001" as="geometry" />
        </mxCell>
        <mxCell id="ShgwBQbkHuVQa2O5DpQs-32" style="edgeStyle=orthogonalEdgeStyle;rounded=0;orthogonalLoop=1;jettySize=auto;html=1;" parent="1" source="ShgwBQbkHuVQa2O5DpQs-8" target="ShgwBQbkHuVQa2O5DpQs-26" edge="1">
          <mxGeometry relative="1" as="geometry" />
        </mxCell>
        <mxCell id="ShgwBQbkHuVQa2O5DpQs-33" style="edgeStyle=orthogonalEdgeStyle;rounded=0;orthogonalLoop=1;jettySize=auto;html=1;entryX=0;entryY=0.5;entryDx=0;entryDy=0;" parent="1" source="ShgwBQbkHuVQa2O5DpQs-8" target="ShgwBQbkHuVQa2O5DpQs-27" edge="1">
          <mxGeometry relative="1" as="geometry" />
        </mxCell>
        <mxCell id="ShgwBQbkHuVQa2O5DpQs-34" style="edgeStyle=orthogonalEdgeStyle;rounded=0;orthogonalLoop=1;jettySize=auto;html=1;entryX=0;entryY=0.5;entryDx=0;entryDy=0;" parent="1" source="ShgwBQbkHuVQa2O5DpQs-8" target="ShgwBQbkHuVQa2O5DpQs-28" edge="1">
          <mxGeometry relative="1" as="geometry" />
        </mxCell>
        <mxCell id="ShgwBQbkHuVQa2O5DpQs-8" value="" style="image;aspect=fixed;html=1;points=[];align=center;fontSize=12;image=img/lib/azure2/general/Folder_Blank.svg;" parent="1" vertex="1">
          <mxGeometry x="125.5" y="550" width="69" height="56.00000000000001" as="geometry" />
        </mxCell>
        <mxCell id="ShgwBQbkHuVQa2O5DpQs-9" value="erp" style="rounded=0;whiteSpace=wrap;html=1;fontSize=24;strokeColor=none;" parent="1" vertex="1">
          <mxGeometry x="105.5" y="390" width="120" height="50" as="geometry" />
        </mxCell>
        <mxCell id="ShgwBQbkHuVQa2O5DpQs-10" value="crm" style="rounded=0;whiteSpace=wrap;html=1;fontSize=24;strokeColor=none;" parent="1" vertex="1">
          <mxGeometry x="110" y="606" width="100" height="50" as="geometry" />
        </mxCell>
        <mxCell id="ShgwBQbkHuVQa2O5DpQs-11" value="Bronze" style="rounded=0;whiteSpace=wrap;html=1;fontSize=24;fillColor=#ffe6cc;strokeColor=#d79b00;" parent="1" vertex="1">
          <mxGeometry x="390" y="200" width="120" height="60" as="geometry" />
        </mxCell>
        <mxCell id="ShgwBQbkHuVQa2O5DpQs-12" value="silver" style="rounded=0;whiteSpace=wrap;html=1;fontSize=24;fillColor=#f5f5f5;fontColor=#333333;strokeColor=#666666;" parent="1" vertex="1">
          <mxGeometry x="720" y="200" width="120" height="60" as="geometry" />
        </mxCell>
        <mxCell id="ShgwBQbkHuVQa2O5DpQs-13" value="" style="rounded=0;whiteSpace=wrap;html=1;strokeColor=light-dark(#ffa200, #ededed);" parent="1" vertex="1">
          <mxGeometry x="1030" y="240" width="230" height="560" as="geometry" />
        </mxCell>
        <mxCell id="ShgwBQbkHuVQa2O5DpQs-14" value="gold" style="rounded=0;whiteSpace=wrap;html=1;fontSize=24;fillColor=#f0a30a;fontColor=#000000;strokeColor=#BD7000;" parent="1" vertex="1">
          <mxGeometry x="1085" y="200" width="120" height="60" as="geometry" />
        </mxCell>
        <mxCell id="ShgwBQbkHuVQa2O5DpQs-15" value="crm_sales_deatils" style="rounded=0;whiteSpace=wrap;html=1;fontSize=24;" parent="1" vertex="1">
          <mxGeometry x="350" y="300" width="205" height="40" as="geometry" />
        </mxCell>
        <mxCell id="ShgwBQbkHuVQa2O5DpQs-19" value="CRM_CUST_INFO" style="rounded=0;whiteSpace=wrap;html=1;fontSize=24;" parent="1" vertex="1">
          <mxGeometry x="360" y="370" width="210" height="40" as="geometry" />
        </mxCell>
        <mxCell id="ShgwBQbkHuVQa2O5DpQs-20" value="crm_prd_info" style="rounded=0;whiteSpace=wrap;html=1;fontSize=24;" parent="1" vertex="1">
          <mxGeometry x="377.5" y="450" width="150" height="40" as="geometry" />
        </mxCell>
        <mxCell id="ShgwBQbkHuVQa2O5DpQs-26" value="erp_cust_az12" style="rounded=0;whiteSpace=wrap;html=1;fontSize=24;" parent="1" vertex="1">
          <mxGeometry x="372.5" y="560" width="165" height="60" as="geometry" />
        </mxCell>
        <mxCell id="ShgwBQbkHuVQa2O5DpQs-27" value="erp_loc_a101" style="rounded=0;whiteSpace=wrap;html=1;fontSize=24;" parent="1" vertex="1">
          <mxGeometry x="377.5" y="640" width="160" height="60" as="geometry" />
        </mxCell>
        <mxCell id="ShgwBQbkHuVQa2O5DpQs-28" value="erp_px_cat_g1v2" style="rounded=0;whiteSpace=wrap;html=1;fontSize=24;" parent="1" vertex="1">
          <mxGeometry x="360" y="720" width="200" height="60" as="geometry" />
        </mxCell>
      </root>
    </mxGraphModel>
  </diagram>
  <diagram id="8kfrmr6KXjLWsBoTf0UL" name="Page-2">
    <mxGraphModel dx="618" dy="1464" grid="1" gridSize="10" guides="1" tooltips="1" connect="1" arrows="1" fold="1" page="1" pageScale="1" pageWidth="1700" pageHeight="1100" math="0" shadow="0">
      <root>
        <mxCell id="0" />
        <mxCell id="1" parent="0" />
        <mxCell id="FFrHaFDfej23sDWbj_2Q-2" value="crm_sales_details" style="shape=table;startSize=70;container=1;collapsible=0;childLayout=tableLayout;" vertex="1" parent="1">
          <mxGeometry x="230" y="300" width="130" height="148" as="geometry" />
        </mxCell>
        <mxCell id="FFrHaFDfej23sDWbj_2Q-3" value="" style="shape=tableRow;horizontal=0;startSize=0;swimlaneHead=0;swimlaneBody=0;strokeColor=inherit;top=0;left=0;bottom=0;right=0;collapsible=0;dropTarget=0;fillColor=none;points=[[0,0.5],[1,0.5]];portConstraint=eastwest;" vertex="1" parent="FFrHaFDfej23sDWbj_2Q-2">
          <mxGeometry y="70" width="130" height="40" as="geometry" />
        </mxCell>
        <mxCell id="FFrHaFDfej23sDWbj_2Q-4" value="prd_key" style="shape=partialRectangle;html=1;whiteSpace=wrap;connectable=0;strokeColor=inherit;overflow=hidden;fillColor=none;top=0;left=0;bottom=0;right=0;pointerEvents=1;" vertex="1" parent="FFrHaFDfej23sDWbj_2Q-3">
          <mxGeometry width="130" height="40" as="geometry">
            <mxRectangle width="130" height="40" as="alternateBounds" />
          </mxGeometry>
        </mxCell>
        <mxCell id="FFrHaFDfej23sDWbj_2Q-26" value="" style="shape=tableRow;horizontal=0;startSize=0;swimlaneHead=0;swimlaneBody=0;strokeColor=inherit;top=0;left=0;bottom=0;right=0;collapsible=0;dropTarget=0;fillColor=none;points=[[0,0.5],[1,0.5]];portConstraint=eastwest;" vertex="1" parent="FFrHaFDfej23sDWbj_2Q-2">
          <mxGeometry y="110" width="130" height="38" as="geometry" />
        </mxCell>
        <mxCell id="FFrHaFDfej23sDWbj_2Q-27" value="cst_key" style="shape=partialRectangle;html=1;whiteSpace=wrap;connectable=0;strokeColor=inherit;overflow=hidden;fillColor=none;top=0;left=0;bottom=0;right=0;pointerEvents=1;" vertex="1" parent="FFrHaFDfej23sDWbj_2Q-26">
          <mxGeometry width="130" height="38" as="geometry">
            <mxRectangle width="130" height="38" as="alternateBounds" />
          </mxGeometry>
        </mxCell>
        <mxCell id="FFrHaFDfej23sDWbj_2Q-5" value="crm_prd_info" style="shape=table;startSize=60;container=1;collapsible=0;childLayout=tableLayout;" vertex="1" parent="1">
          <mxGeometry x="430" y="210" width="140" height="100" as="geometry" />
        </mxCell>
        <mxCell id="FFrHaFDfej23sDWbj_2Q-6" value="" style="shape=tableRow;horizontal=0;startSize=0;swimlaneHead=0;swimlaneBody=0;strokeColor=inherit;top=0;left=0;bottom=0;right=0;collapsible=0;dropTarget=0;fillColor=none;points=[[0,0.5],[1,0.5]];portConstraint=eastwest;" vertex="1" parent="FFrHaFDfej23sDWbj_2Q-5">
          <mxGeometry y="60" width="140" height="40" as="geometry" />
        </mxCell>
        <mxCell id="FFrHaFDfej23sDWbj_2Q-7" value="prd_key" style="shape=partialRectangle;html=1;whiteSpace=wrap;connectable=0;strokeColor=inherit;overflow=hidden;fillColor=none;top=0;left=0;bottom=0;right=0;pointerEvents=1;" vertex="1" parent="FFrHaFDfej23sDWbj_2Q-6">
          <mxGeometry width="140" height="40" as="geometry">
            <mxRectangle width="140" height="40" as="alternateBounds" />
          </mxGeometry>
        </mxCell>
        <mxCell id="FFrHaFDfej23sDWbj_2Q-8" value="crm_cust_info" style="shape=table;startSize=60;container=1;collapsible=0;childLayout=tableLayout;" vertex="1" parent="1">
          <mxGeometry x="440" y="380" width="140" height="145" as="geometry" />
        </mxCell>
        <mxCell id="FFrHaFDfej23sDWbj_2Q-9" value="" style="shape=tableRow;horizontal=0;startSize=0;swimlaneHead=0;swimlaneBody=0;strokeColor=inherit;top=0;left=0;bottom=0;right=0;collapsible=0;dropTarget=0;fillColor=none;points=[[0,0.5],[1,0.5]];portConstraint=eastwest;" vertex="1" parent="FFrHaFDfej23sDWbj_2Q-8">
          <mxGeometry y="60" width="140" height="45" as="geometry" />
        </mxCell>
        <mxCell id="FFrHaFDfej23sDWbj_2Q-10" value="cst_id" style="shape=partialRectangle;html=1;whiteSpace=wrap;connectable=0;strokeColor=inherit;overflow=hidden;fillColor=none;top=0;left=0;bottom=0;right=0;pointerEvents=1;" vertex="1" parent="FFrHaFDfej23sDWbj_2Q-9">
          <mxGeometry width="140" height="45" as="geometry">
            <mxRectangle width="140" height="45" as="alternateBounds" />
          </mxGeometry>
        </mxCell>
        <mxCell id="FFrHaFDfej23sDWbj_2Q-21" value="" style="shape=tableRow;horizontal=0;startSize=0;swimlaneHead=0;swimlaneBody=0;strokeColor=inherit;top=0;left=0;bottom=0;right=0;collapsible=0;dropTarget=0;fillColor=none;points=[[0,0.5],[1,0.5]];portConstraint=eastwest;" vertex="1" parent="FFrHaFDfej23sDWbj_2Q-8">
          <mxGeometry y="105" width="140" height="40" as="geometry" />
        </mxCell>
        <mxCell id="FFrHaFDfej23sDWbj_2Q-22" value="cst_key" style="shape=partialRectangle;html=1;whiteSpace=wrap;connectable=0;strokeColor=inherit;overflow=hidden;fillColor=none;top=0;left=0;bottom=0;right=0;pointerEvents=1;" vertex="1" parent="FFrHaFDfej23sDWbj_2Q-21">
          <mxGeometry width="140" height="40" as="geometry">
            <mxRectangle width="140" height="40" as="alternateBounds" />
          </mxGeometry>
        </mxCell>
        <mxCell id="FFrHaFDfej23sDWbj_2Q-12" value="erp_px_cat_g1v2" style="shape=table;startSize=30;container=1;collapsible=0;childLayout=tableLayout;" vertex="1" parent="1">
          <mxGeometry x="710" y="160" width="140" height="70" as="geometry" />
        </mxCell>
        <mxCell id="FFrHaFDfej23sDWbj_2Q-13" value="" style="shape=tableRow;horizontal=0;startSize=0;swimlaneHead=0;swimlaneBody=0;strokeColor=inherit;top=0;left=0;bottom=0;right=0;collapsible=0;dropTarget=0;fillColor=none;points=[[0,0.5],[1,0.5]];portConstraint=eastwest;" vertex="1" parent="FFrHaFDfej23sDWbj_2Q-12">
          <mxGeometry y="30" width="140" height="40" as="geometry" />
        </mxCell>
        <mxCell id="FFrHaFDfej23sDWbj_2Q-14" value="id" style="shape=partialRectangle;html=1;whiteSpace=wrap;connectable=0;strokeColor=inherit;overflow=hidden;fillColor=none;top=0;left=0;bottom=0;right=0;pointerEvents=1;" vertex="1" parent="FFrHaFDfej23sDWbj_2Q-13">
          <mxGeometry width="140" height="40" as="geometry">
            <mxRectangle width="140" height="40" as="alternateBounds" />
          </mxGeometry>
        </mxCell>
        <mxCell id="FFrHaFDfej23sDWbj_2Q-15" value="erp_cust_az12" style="shape=table;startSize=30;container=1;collapsible=0;childLayout=tableLayout;" vertex="1" parent="1">
          <mxGeometry x="790" y="310" width="140" height="70" as="geometry" />
        </mxCell>
        <mxCell id="FFrHaFDfej23sDWbj_2Q-16" value="" style="shape=tableRow;horizontal=0;startSize=0;swimlaneHead=0;swimlaneBody=0;strokeColor=inherit;top=0;left=0;bottom=0;right=0;collapsible=0;dropTarget=0;fillColor=none;points=[[0,0.5],[1,0.5]];portConstraint=eastwest;" vertex="1" parent="FFrHaFDfej23sDWbj_2Q-15">
          <mxGeometry y="30" width="140" height="40" as="geometry" />
        </mxCell>
        <mxCell id="FFrHaFDfej23sDWbj_2Q-17" value="cid" style="shape=partialRectangle;html=1;whiteSpace=wrap;connectable=0;strokeColor=inherit;overflow=hidden;fillColor=none;top=0;left=0;bottom=0;right=0;pointerEvents=1;" vertex="1" parent="FFrHaFDfej23sDWbj_2Q-16">
          <mxGeometry width="140" height="40" as="geometry">
            <mxRectangle width="140" height="40" as="alternateBounds" />
          </mxGeometry>
        </mxCell>
        <mxCell id="FFrHaFDfej23sDWbj_2Q-18" value="erp_loc_a101" style="shape=table;startSize=30;container=1;collapsible=0;childLayout=tableLayout;" vertex="1" parent="1">
          <mxGeometry x="760" y="480" width="140" height="70" as="geometry" />
        </mxCell>
        <mxCell id="FFrHaFDfej23sDWbj_2Q-19" value="" style="shape=tableRow;horizontal=0;startSize=0;swimlaneHead=0;swimlaneBody=0;strokeColor=inherit;top=0;left=0;bottom=0;right=0;collapsible=0;dropTarget=0;fillColor=none;points=[[0,0.5],[1,0.5]];portConstraint=eastwest;" vertex="1" parent="FFrHaFDfej23sDWbj_2Q-18">
          <mxGeometry y="30" width="140" height="40" as="geometry" />
        </mxCell>
        <mxCell id="FFrHaFDfej23sDWbj_2Q-20" value="cid" style="shape=partialRectangle;html=1;whiteSpace=wrap;connectable=0;strokeColor=inherit;overflow=hidden;fillColor=none;top=0;left=0;bottom=0;right=0;pointerEvents=1;" vertex="1" parent="FFrHaFDfej23sDWbj_2Q-19">
          <mxGeometry width="140" height="40" as="geometry">
            <mxRectangle width="140" height="40" as="alternateBounds" />
          </mxGeometry>
        </mxCell>
        <mxCell id="FFrHaFDfej23sDWbj_2Q-28" style="edgeStyle=orthogonalEdgeStyle;rounded=0;orthogonalLoop=1;jettySize=auto;html=1;entryX=0;entryY=0.5;entryDx=0;entryDy=0;" edge="1" parent="1" source="FFrHaFDfej23sDWbj_2Q-3" target="FFrHaFDfej23sDWbj_2Q-6">
          <mxGeometry relative="1" as="geometry" />
        </mxCell>
        <mxCell id="FFrHaFDfej23sDWbj_2Q-29" style="edgeStyle=orthogonalEdgeStyle;rounded=0;orthogonalLoop=1;jettySize=auto;html=1;entryX=0;entryY=0.5;entryDx=0;entryDy=0;" edge="1" parent="1" source="FFrHaFDfej23sDWbj_2Q-26" target="FFrHaFDfej23sDWbj_2Q-9">
          <mxGeometry relative="1" as="geometry" />
        </mxCell>
        <mxCell id="FFrHaFDfej23sDWbj_2Q-31" style="edgeStyle=orthogonalEdgeStyle;rounded=0;orthogonalLoop=1;jettySize=auto;html=1;entryX=1;entryY=0.5;entryDx=0;entryDy=0;" edge="1" parent="1" source="FFrHaFDfej23sDWbj_2Q-19" target="FFrHaFDfej23sDWbj_2Q-9">
          <mxGeometry relative="1" as="geometry" />
        </mxCell>
        <mxCell id="FFrHaFDfej23sDWbj_2Q-32" style="edgeStyle=orthogonalEdgeStyle;rounded=0;orthogonalLoop=1;jettySize=auto;html=1;entryX=1;entryY=0.5;entryDx=0;entryDy=0;" edge="1" parent="1" source="FFrHaFDfej23sDWbj_2Q-16" target="FFrHaFDfej23sDWbj_2Q-9">
          <mxGeometry relative="1" as="geometry" />
        </mxCell>
        <mxCell id="FFrHaFDfej23sDWbj_2Q-33" style="edgeStyle=orthogonalEdgeStyle;rounded=0;orthogonalLoop=1;jettySize=auto;html=1;entryX=1;entryY=0.5;entryDx=0;entryDy=0;" edge="1" parent="1" source="FFrHaFDfej23sDWbj_2Q-13" target="FFrHaFDfej23sDWbj_2Q-6">
          <mxGeometry relative="1" as="geometry" />
        </mxCell>
        <mxCell id="FFrHaFDfej23sDWbj_2Q-34" value="&lt;font style=&quot;font-size: 24px;&quot;&gt;Integration&amp;nbsp; Model&lt;/font&gt;" style="rounded=0;whiteSpace=wrap;html=1;" vertex="1" parent="1">
          <mxGeometry x="250" y="30" width="290" height="80" as="geometry" />
        </mxCell>
      </root>
    </mxGraphModel>
  </diagram>
</mxfile>
